<?xml version="1.0" encoding="utf-8"?>
<!-- Generator: Adobe Illustrator 24.2.0, SVG Export Plug-In . SVG Version: 6.00 Build 0)  -->
<svg version="1.1" id="icon_x5F_chevron" xmlns="http://www.w3.org/2000/svg" xmlns:xlink="http://www.w3.org/1999/xlink" x="0px"
	 y="0px" viewBox="0 0 36 36" style="enable-background:new 0 0 36 36;" xml:space="preserve">
<style type="text/css">
	.st0{fill-rule:evenodd;clip-rule:evenodd;fill:#FFFFFF;}
	.st1{fill-rule:evenodd;clip-rule:evenodd;fill:#05ddb9}
</style>
<g id="chevron-down-bg-grey" transform="translate(292.000000, 474.000000)">
	<path id="circle" class="st0" d="M-274-474L-274-474c-9.9,0-18,8.1-18,18l0,0c0,9.9,8.1,18,18,18l0,0c9.9,0,18-8.1,18-18l0,0
		C-256-465.9-264.1-474-274-474z"/>
	<g id="icon-_x2F_-chevron-_x2F_-chevron-down" transform="translate(6.750000, 9.000000)">
		<path class="st1" d="M-271.4-467.8l-9.4,8.4l0,0l-9.4-8.4c-0.4-0.3-0.9-0.3-1.3,0c-0.3,0.3-0.3,0.8-0.1,1.1c0,0,0,0,0.1,0.1
			l10.6,9.6l0,0l10.6-9.6c0.3-0.3,0.3-0.8,0.1-1.1c0,0,0,0-0.1-0.1C-270.5-468.1-271-468.1-271.4-467.8z"/>
	</g>
</g>
</svg>
