<?xml version="1.0" encoding="utf-8"?>
<!-- Generator: Adobe Illustrator 24.2.0, SVG Export Plug-In . SVG Version: 6.00 Build 0)  -->
<svg version="1.1" id="icon_x5F_cart" xmlns="http://www.w3.org/2000/svg" xmlns:xlink="http://www.w3.org/1999/xlink" x="0px"
	 y="0px" viewBox="0 0 26 24" style="enable-background:new 0 0 26 24;" xml:space="preserve">
<style type="text/css">
	.st0{fill-rule:evenodd;clip-rule:evenodd;}
</style>
<path id="cart" class="st0" d="M18.7,18.5c1.3,0,2.4,1.1,2.4,2.4c0,1.3-1.1,2.4-2.4,2.4c-1.3,0-2.4-1.1-2.4-2.4
	C16.2,19.6,17.3,18.5,18.7,18.5z M10.6,18.5c1.3,0,2.4,1.1,2.4,2.4c0,1.3-1.1,2.4-2.4,2.4s-2.4-1.1-2.4-2.4
	C8.1,19.6,9.2,18.5,10.6,18.5z M18.7,19.9c-0.6,0-1.1,0.5-1.1,1.1c0,0.6,0.5,1.1,1.1,1.1s1.1-0.5,1.1-1.1
	C19.8,20.3,19.3,19.9,18.7,19.9z M10.6,19.9c-0.6,0-1.1,0.5-1.1,1.1c0,0.6,0.5,1.1,1.1,1.1c0.6,0,1.1-0.5,1.1-1.1
	C11.6,20.3,11.2,19.9,10.6,19.9z M5.2,0.6c0.3,0,0.6,0.2,0.7,0.5c0.1,0.3,0.2,0.7,0.3,1l0,0l0.2,0.5c0.2,0.5,0.3,1,0.5,1.5l0,0h18.1
	c0,0,0,0,0,0c0.1,0,0.2,0,0.4,0c0.2,0,0.4,0.2,0.5,0.4C26,4.7,26,4.9,26,5l0,0l-0.4,1.1c-0.5,1.3-1,2.6-1.5,3.8l0,0l-1.4,3.7
	c-0.1,0.3-0.4,0.5-0.7,0.5c-0.2,0-0.4,0-0.5,0c-0.2,0-0.4,0-0.5,0c-0.2,0-0.3,0-0.5,0l0,0H9.6l-0.7,1.3c0.2,0,0.3,0,0.5,0l0,0H22
	c0.4,0,0.7,0.3,0.7,0.7c0,0.2-0.1,0.4-0.2,0.5c-0.1,0.1-0.3,0.2-0.5,0.2c-0.2,0-0.4,0-0.6,0c-0.2,0-0.4,0-0.6,0c-0.2,0-0.4,0-0.6,0
	H7.7c-0.3,0-0.5-0.1-0.6-0.4c-0.1-0.2-0.1-0.5,0-0.7l0,0l1.4-2.4c-0.1-0.2-0.2-0.5-0.2-0.7c-0.1-0.2-0.1-0.4-0.2-0.5
	c-0.3-1-0.7-2-1-3C6.6,8,6.3,6.8,5.9,5.6l0,0L4.7,2.1h-4C0.3,2.1,0,1.8,0,1.4C0,1.2,0.1,1,0.2,0.9c0.1-0.1,0.3-0.2,0.5-0.2l0,0H5.2z
	 M24.2,5.7H7.4C7.8,6.8,8.2,8,8.5,9.1l0,0l1.2,3.6c0.2,0,0.4,0,0.5,0c0.2,0,0.3,0,0.5,0l0,0h10.7l0.2-0.5c0.5-1.3,1-2.6,1.5-3.8l0,0
	L24.2,5.7z"/>
</svg>
