<?xml version="1.0" encoding="utf-8"?>
<!-- Generator: Adobe Illustrator 24.2.0, SVG Export Plug-In . SVG Version: 6.00 Build 0)  -->
<svg version="1.1" id="icon_x5F_chevron" xmlns="http://www.w3.org/2000/svg" xmlns:xlink="http://www.w3.org/1999/xlink" x="0px"
	 y="0px" viewBox="0 0 45 45" style="enable-background:new 0 0 45 45;" xml:space="preserve">
<style type="text/css">
	.st0{fill-rule:evenodd;clip-rule:evenodd;fill:#FFFFFF;}
	.st1{fill-rule:evenodd;clip-rule:evenodd;}
</style>
<g id="chevron-down-bg-grey" transform="translate(310.500000, 182.500000) rotate(-90.000000) translate(-310.500000, -182.500000) translate(288.000000, 160.000000)">
	<path id="Rectangle-Copy-54" class="st0" d="M182.5-288L182.5-288c-12.4,0-22.5,10.1-22.5,22.5l0,0c0,12.4,10.1,22.5,22.5,22.5l0,0
		c12.4,0,22.5-10.1,22.5-22.5l0,0C205-277.9,194.9-288,182.5-288z"/>
	<g id="icon-_x2F_-chevron-_x2F_-chevron-down" transform="translate(8.437500, 11.250000)">
		<path class="st1" d="M185.8-280.3l-11.7,10.5l0,0l-11.7-10.5c-0.4-0.4-1.1-0.4-1.6,0c-0.4,0.3-0.4,0.9-0.1,1.3c0,0,0,0,0.1,0.1
			l13.3,11.9l0,0l13.3-12c0.4-0.3,0.4-0.9,0.1-1.3c0,0,0,0-0.1-0.1C186.9-280.7,186.2-280.7,185.8-280.3z"/>
	</g>
</g>
</svg>
