<?xml version="1.0" encoding="utf-8"?>
<!-- Generator: Adobe Illustrator 24.2.0, SVG Export Plug-In . SVG Version: 6.00 Build 0)  -->
<svg version="1.1" id="icon_x5F_close" xmlns="http://www.w3.org/2000/svg" xmlns:xlink="http://www.w3.org/1999/xlink" x="0px"
	 y="0px" viewBox="0 0 25 25" style="enable-background:new 0 0 25 25;" xml:space="preserve">
<style type="text/css">
	.st0{fill-rule:evenodd;clip-rule:evenodd;fill:#05DDB9;}
</style>
<path id="cross" class="st0" d="M23.8,0.8l0.4,0.4c0.3,0.3,0.3,0.7,0,0.9L13.8,12.5l10.4,10.4c0.3,0.3,0.3,0.7,0,0.9l-0.4,0.4
	c-0.3,0.3-0.7,0.3-0.9,0L12.5,13.8L2.1,24.2c-0.3,0.3-0.7,0.3-0.9,0l-0.4-0.4c-0.3-0.3-0.3-0.7,0-0.9l10.4-10.4L0.8,2.1
	c-0.3-0.3-0.3-0.7,0-0.9l0.4-0.4c0.3-0.3,0.7-0.3,0.9,0l10.4,10.4L22.9,0.8C23.1,0.5,23.6,0.5,23.8,0.8z"/>
</svg>
