<?xml version="1.0" encoding="utf-8"?>
<!-- Generator: Adobe Illustrator 24.2.0, SVG Export Plug-In . SVG Version: 6.00 Build 0)  -->
<svg version="1.1" id="icon_x5F_visible" xmlns="http://www.w3.org/2000/svg" xmlns:xlink="http://www.w3.org/1999/xlink" x="0px"
	 y="0px" viewBox="0 0 18 12" style="enable-background:new 0 0 18 12;" xml:space="preserve">
<style type="text/css">
	.st0{fill:none;stroke:#858585;stroke-width:0.5;}
</style>
<g id="eye" transform="translate(472.000000, 35.000000)">
	<path id="Shape" class="st0" d="M-462.9-23.9c-4.4,0-7.9-4.7-8-4.9c-0.1-0.1-0.1-0.2,0-0.2c0.1-0.2,3.6-4.9,8-4.9s7.9,4.7,8,4.9
		c0.1,0.1,0.1,0.2,0,0.2C-455-28.6-458.5-23.9-462.9-23.9z M-470.5-28.9c0.6,0.7,3.8,4.7,7.6,4.7c3.8,0,7.1-3.9,7.6-4.7
		c-0.6-0.7-3.8-4.7-7.6-4.7S-470-29.7-470.5-28.9z"/>
	<path id="Shape_1_" class="st0" d="M-462.9-25.6c-1.8,0-3.3-1.5-3.3-3.3c0-1.8,1.5-3.3,3.3-3.3s3.3,1.5,3.3,3.3
		C-459.6-27.1-461.1-25.6-462.9-25.6z M-462.9-31.9c-1.6,0-2.9,1.3-2.9,2.9c0,1.6,1.3,2.9,2.9,2.9c1.6,0,2.9-1.3,2.9-2.9
		C-460-30.6-461.3-31.9-462.9-31.9z"/>
</g>
</svg>
