<?xml version="1.0" encoding="utf-8"?>
<!-- Generator: Adobe Illustrator 24.2.0, SVG Export Plug-In . SVG Version: 6.00 Build 0)  -->
<svg version="1.1" id="deco_x5F_icon_x5F_wishlist" xmlns="http://www.w3.org/2000/svg" xmlns:xlink="http://www.w3.org/1999/xlink"
	 x="0px" y="0px" viewBox="0 0 105 99" style="enable-background:new 0 0 105 99;" xml:space="preserve">
<style type="text/css">
	.st0{fill-rule:evenodd;clip-rule:evenodd;}
</style>
<g id="wishlist" transform="translate(0.000000, 3.343750)">
	<path id="Fill-1" class="st0" d="M87.9,25.1l-12-11.6c-3.1-3.2-3.1-8.3,0-11.5c1.4-1.5,3.4-2.3,5.5-2.3l0,0c1.5,0,3.5,1.1,5.5,3.1
		c0.5,0.5,1.4,0.5,2,0C90.5,1,92.7,0,95.1,0c1.8,0,3.5,0.7,4.7,2c3,3.2,3,8.3,0,11.5L87.9,25.1z M101.7,0.1C100-1.6,97.6-2.7,95-2.6
		c-2.6,0-5.2,1-7.2,2.7c-2.3-2-4.5-3.1-6.5-3c-2.8,0-5.4,1.1-7.3,3.1c-4,4.2-4,10.9,0,15.1l12.1,11.8c0.4,0.4,1,0.7,1.7,0.7l0,0
		c0.6,0,1.2-0.2,1.7-0.7l12.2-11.8C105.7,11,105.7,4.4,101.7,0.1L101.7,0.1z"/>
	<path id="Fill-3" class="st0" d="M60.5,7.9C59.3,11.2,55.8,18,46.8,18S34.3,11.2,33.1,7.9C33.1,7.9,60.5,7.9,60.5,7.9z M93.2,40.1
		c0,0-0.3-1.2-0.9-3.1l-0.1-0.2L92,36.9c-0.8,0.2-1.6,0.3-2.5,0.5h-0.3l0.1,0.3c0.2,0.7,0.4,1.3,0.6,1.8l-11.1,2.8l-4.6-6.9v-0.1
		h-0.1c-1.2-0.5-2.3-1.1-3.3-1.8l-0.4-0.2v59.3H23.3V29.7l-8.4,12.6L3.7,39.5c1-3.1,3.4-10.3,6.8-16.7c3.6-6.7,15.6-12.5,19.6-14.3
		c1.4,4,5.6,12.5,16.6,12.5c8.5,0,12.9-5,15.2-9.3c0.3-1,0.8-2.1,1.4-3.1V8.5l0,0l0.1-0.2c0.4-0.7,0.9-1.4,1.4-2.1L65.1,6l-0.3-0.1
		C63.7,5.3,63,5.1,63,5.1L62.8,5H30.9l-0.3,0.1c-0.7,0.3-17.8,7.2-22.7,16.3c-4.5,8.3-7.2,17.7-7.5,18.8L0,41.6l16.2,4.1l4.1-6.2v56
		h53.1v-56l4.1,6.2l16.2-4.1L93.2,40.1z"/>
</g>
</svg>
