<?xml version="1.0" encoding="utf-8"?>
<!-- Generator: Adobe Illustrator 24.2.0, SVG Export Plug-In . SVG Version: 6.00 Build 0)  -->
<svg version="1.1" id="deco_x5F_icon_x5F_delivery" xmlns="http://www.w3.org/2000/svg" xmlns:xlink="http://www.w3.org/1999/xlink"
	 x="0px" y="0px" viewBox="0 0 128 83" style="enable-background:new 0 0 128 83;" xml:space="preserve">
<style type="text/css">
	.st0{fill-rule:evenodd;clip-rule:evenodd;}
</style>
<g id="delivery" transform="translate(0.000000, 16.000000)">
	<path id="Fill-1" class="st0" d="M25.8,4.7H1.2C0.5,4.7,0,5.3,0,6s0.5,1.2,1.2,1.2h24.6c0.7,0,1.2-0.5,1.2-1.2
		C27,5.3,26.4,4.7,25.8,4.7"/>
	<path id="Fill-3" class="st0" d="M25.8,24.6H1.2c-0.7,0-1.2,0.5-1.2,1.2c0,0.7,0.5,1.2,1.2,1.2h24.6c0.7,0,1.2-0.5,1.2-1.2
		C27,25.2,26.4,24.6,25.8,24.6"/>
	<path id="Fill-5" class="st0" d="M124.8,50.8l-17.3,5.6V38.6c0-0.8-0.6-1.5-1.5-1.5c-0.9,0-1.3,0.7-1.3,1.5v18.8L87.3,63V13
		l37.4-12.3V50.8z M85.8,10.4L70.2,5.4l12.2-4.3c0.4-0.1,0.7-0.4,0.9-0.8c0.1-0.2,0.2-0.6,0-1.1c-0.3-0.9-1.2-1.1-2-0.9L65.9,3.9
		L50.2-1.2l35.7-11.7l35.7,11.7L85.8,10.4z M84.5,62.3H82L46.9,50.8v-50l17.3,5.6v27.4c0,0.8,0.6,1.5,1.5,1.5c0.8,0,1.5-0.6,1.5-1.5
		V7.4L84.5,13V62.3z M126.7-2.7L86.2-15.9c-0.2-0.1-0.4-0.1-0.9,0L44.9-2.7c-0.6,0.2-1,0.8-1,1.4v53.1c0,0.6,0.4,1.2,1.1,1.5
		l40.4,13.2c0.1,0,0.1,0,0.5,0s0.4,0,0.5,0l40.4-13.3c0.6-0.2,1-0.8,1-1.4V-1.2C127.8-1.9,127.4-2.4,126.7-2.7L126.7-2.7z"/>
	<path id="Fill-7" class="st0" d="M25.8,43.4H1.2C0.5,43.4,0,44,0,44.7c0,0.7,0.5,1.2,1.2,1.2h24.6c0.7,0,1.2-0.5,1.2-1.2
		C27,44,26.4,43.4,25.8,43.4"/>
</g>
</svg>
