<?xml version="1.0" encoding="utf-8"?>
<!-- Generator: Adobe Illustrator 24.2.0, SVG Export Plug-In . SVG Version: 6.00 Build 0)  -->
<svg version="1.1" id="deco_x5F_icon_x5F_security" xmlns="http://www.w3.org/2000/svg" xmlns:xlink="http://www.w3.org/1999/xlink"
	 x="0px" y="0px" viewBox="0 0 83 106" style="enable-background:new 0 0 83 106;" xml:space="preserve">
<style type="text/css">
	.st0{fill-rule:evenodd;clip-rule:evenodd;}
</style>
<g id="security" transform="translate(13.375000, -0.671757)">
	<g id="Group-3" transform="translate(0.000000, 0.063362)">
		<g id="Clip-2">
		</g>
		<path id="Fill-1" class="st0" d="M27.6,102.4L-3,74.5c-4.5-4.1-7.1-10-7.1-16.1V17.9h0.3h0.5c13.5,0,26.7-4.8,36.9-13.7L27.8,4
			L28,4.2C38.4,13,51.5,17.9,65,17.9h0.5h0.3v40.5c0,6.1-2.6,12-7.1,16.1l-30.8,28.1L27.6,102.4z M28.8,105.6l31.8-28.9
			c5.1-4.7,8.1-11.3,8.1-18.3v-42c0-0.4-0.2-0.8-0.4-1l0,0c-0.3-0.3-0.6-0.4-1-0.4l0,0c-0.7,0-1.3,0-2,0C51.8,15,39,10.1,28.9,1.1
			l0,0L28.8,1c0,0-0.1-0.1-0.2-0.1c-0.1-0.1-0.2-0.1-0.3-0.2c0,0-0.1,0-0.2,0c-0.2-0.1-0.4-0.1-0.5,0c-0.2,0-0.3,0-0.3,0.1
			c-0.1,0-0.1,0.1-0.2,0.1C27,0.9,26.9,1,26.9,1v0.1h-0.1C16.2,10.6,2.6,15.5-11.5,15h-0.1c-0.4,0-0.7,0.1-1,0.4
			c-0.3,0.3-0.4,0.6-0.4,1v42c0,6.9,2.9,13.6,8.1,18.3l31.8,28.9c0.1,0.1,0.1,0.1,0.3,0.2c0.4,0.3,1,0.3,1.4,0
			C28.7,105.7,28.8,105.7,28.8,105.6L28.8,105.6z"/>
	</g>
	<path id="Fill-4" class="st0" d="M27.8,72.8c-10.7,0-19.5-8.7-19.5-19.5c0-10.7,8.8-19.5,19.5-19.5s19.5,8.7,19.5,19.5
		S38.6,72.8,27.8,72.8 M27.8,31C15.5,31,5.5,41,5.5,53.4c0,12.3,10,22.4,22.4,22.4c12.3,0,22.4-10,22.4-22.4S40.2,31,27.8,31"/>
	<path id="Fill-6" class="st0" d="M17.7,53.1l6,6c0.3,0.3,0.6,0.4,1,0.4s0.8-0.2,1.1-0.5l12.3-14.1c0.3-0.4,0.4-0.9,0.3-1.4
		c-0.2-0.5-0.6-0.8-1.1-0.9c-0.5-0.1-1,0.1-1.4,0.5L24.6,55.9L19.7,51c-0.3-0.3-0.6-0.4-1-0.4s-0.7,0.1-1,0.4
		C17.1,51.6,17.1,52.5,17.7,53.1"/>
</g>
</svg>
