<?xml version="1.0" encoding="utf-8"?>
<!-- Generator: Adobe Illustrator 24.2.0, SVG Export Plug-In . SVG Version: 6.00 Build 0)  -->
<svg version="1.1" id="icon_x5F_fav" xmlns="http://www.w3.org/2000/svg" xmlns:xlink="http://www.w3.org/1999/xlink" x="0px"
	 y="0px" viewBox="0 0 16 16" style="enable-background:new 0 0 16 16;" xml:space="preserve">
<style type="text/css">
	.st0{fill-rule:evenodd;clip-rule:evenodd;}
</style>
<path id="heart" class="st0" d="M4.6,1.6c-2,0-3.6,1.6-3.6,3.6c0,2.5,2.4,4.7,6,8.1L8,14l0.9-0.8c3.6-3.3,6-5.5,6-8.1
	c0-2-1.6-3.6-3.6-3.6c-0.9,0-2,0.6-3,1.7L8,3.8L7.6,3.3C6.7,2.3,5.6,1.6,4.6,1.6L4.6,1.6z M8,15.5l-1.6-1.4C2.5,10.5,0,8.2,0,5.2
	c0-2.6,2-4.7,4.6-4.7c1.4,0,2.7,1,3.4,1.7c0.7-0.7,1.9-1.7,3.4-1.7c2.6,0,4.6,2,4.6,4.7c0,3.1-2.5,5.4-6.4,8.9L8,15.5z"/>
</svg>
