<?xml version="1.0" encoding="utf-8"?>
<!-- Generator: Adobe Illustrator 24.2.0, SVG Export Plug-In . SVG Version: 6.00 Build 0)  -->
<svg version="1.1" id="icon_x5F_order_x5F_history" xmlns="http://www.w3.org/2000/svg" xmlns:xlink="http://www.w3.org/1999/xlink"
	 x="0px" y="0px" viewBox="0 0 76 108" style="enable-background:new 0 0 76 108;" xml:space="preserve">
<style type="text/css">
	.st0{fill-rule:evenodd;clip-rule:evenodd;}
</style>
<g id="order-history" transform="translate(13.500000, 0.000000)">
	<g id="noun_tablet-money_2651132">
		<g>
			<g id="Group">
				<path id="Shape" d="M52.2,0H-2.8C-8.4,0-13,4.6-13,10.2v87.1c0,5.6,4.6,10.2,10.2,10.2h55.1c5.6,0,10.2-4.6,10.2-10.2V10.2
					C62.4,4.6,57.9,0,52.2,0z M60.1,15.1v82c0,4.4-3.6,8-8,8H-2.7c-4.4,0-8-3.6-8-8V10.3c0-4.4,3.6-8,8-8h54.8c4.4,0,8,3.6,8,8V15.1
					z"/>
				<path id="Shape_1_" d="M52.1,96H-2.7c-1.9,0-3.4-1.5-3.4-3.4V14.9c0-1.9,1.5-3.4,3.4-3.4h54.8c1.9,0,3.4,1.5,3.4,3.4v77.7
					C55.6,94.5,54,96,52.1,96z M-3.9,14.9v77.7c0,0.6,0.5,1.1,1.1,1.1h54.8c0.6,0,1.1-0.5,1.1-1.1V14.9c0-0.6-0.5-1.1-1.1-1.1H-2.7
					C-3.3,13.7-3.9,14.2-3.9,14.9z"/>
				<path id="Rectangle" d="M20.2,98.5h8.2c1.1,0,2,0.9,2,2l0,0c0,1.1-0.9,2-2,2h-8.2c-1.1,0-2-0.9-2-2l0,0
					C18.2,99.4,19.1,98.5,20.2,98.5z"/>
			</g>
		</g>
	</g>
	<path id="Rectangle_1_" class="st0" d="M9.3,24.3h37.5c0.6,0,1,0.5,1,1v0c0,0.6-0.5,1-1,1H9.3c-0.6,0-1-0.5-1-1v0
		C8.3,24.8,8.7,24.3,9.3,24.3z"/>
	<path id="Rectangle-Copy-2" class="st0" d="M9.3,32.4h37.5c0.6,0,1,0.5,1,1l0,0c0,0.6-0.5,1-1,1H9.3c-0.6,0-1-0.5-1-1l0,0
		C8.3,32.9,8.7,32.4,9.3,32.4z"/>
	<path id="Rectangle-Copy-6" class="st0" d="M9.3,56.7h37.5c0.6,0,1,0.5,1,1l0,0c0,0.6-0.5,1-1,1H9.3c-0.6,0-1-0.5-1-1l0,0
		C8.3,57.2,8.7,56.7,9.3,56.7z"/>
	<path id="Rectangle-Copy-4" class="st0" d="M9.3,40.5h37.5c0.6,0,1,0.5,1,1l0,0c0,0.6-0.5,1-1,1H9.3c-0.6,0-1-0.5-1-1l0,0
		C8.3,41,8.7,40.5,9.3,40.5z"/>
	<path id="Rectangle-Copy-7" class="st0" d="M9.3,64.8h37.5c0.6,0,1,0.5,1,1v0c0,0.6-0.5,1-1,1H9.3c-0.6,0-1-0.5-1-1v0
		C8.3,65.3,8.7,64.8,9.3,64.8z"/>
	<path id="Rectangle-Copy-5" class="st0" d="M9.3,48.6h37.5c0.6,0,1,0.5,1,1l0,0c0,0.6-0.5,1-1,1H9.3c-0.6,0-1-0.5-1-1l0,0
		C8.3,49.1,8.7,48.6,9.3,48.6z"/>
	<path id="Rectangle-Copy-8" class="st0" d="M9.3,72.9h37.5c0.6,0,1,0.5,1,1v0c0,0.6-0.5,1-1,1H9.3c-0.6,0-1-0.5-1-1v0
		C8.3,73.4,8.7,72.9,9.3,72.9z"/>
	<path id="Rectangle-Copy-9" class="st0" d="M9.3,81h37.5c0.6,0,1,0.5,1,1v0c0,0.6-0.5,1-1,1H9.3c-0.6,0-1-0.5-1-1v0
		C8.3,81.5,8.7,81,9.3,81z"/>
	<g id="icon_x2F_tick" transform="translate(15.187501, 22.275001)">
		<path id="tick" class="st0" d="M-12.6,2.6c-0.2,0.2-0.1,0.5,0.1,0.7c0,0,0,0,0,0l1.6,1.2l0,0l2.6-3c0.2-0.2,0.2-0.5,0-0.7
			c0,0,0,0,0,0c-0.2-0.2-0.5-0.2-0.7,0l-2,2.3l0,0l-0.9-0.7C-12.1,2.3-12.5,2.4-12.6,2.6z"/>
	</g>
	<g id="icon_x2F_tick_1_" transform="translate(15.187501, 46.575002)">
		<path id="tick_1_" class="st0" d="M-12.6,2.6c-0.2,0.2-0.1,0.5,0.1,0.7c0,0,0,0,0,0l1.6,1.2l0,0l2.6-3c0.2-0.2,0.2-0.5,0-0.7
			c0,0,0,0,0,0c-0.2-0.2-0.5-0.2-0.7,0l-2,2.3l0,0l-0.9-0.7C-12.1,2.3-12.5,2.4-12.6,2.6z"/>
	</g>
	<g id="icon_x2F_tick_2_" transform="translate(15.187501, 30.375001)">
		<path id="tick_2_" class="st0" d="M-12.6,2.6c-0.2,0.2-0.1,0.5,0.1,0.7c0,0,0,0,0,0l1.6,1.2l0,0l2.6-3c0.2-0.2,0.2-0.5,0-0.7
			c0,0,0,0,0,0c-0.2-0.2-0.5-0.2-0.7,0l-2,2.3l0,0l-0.9-0.7C-12.1,2.3-12.5,2.4-12.6,2.6z"/>
	</g>
	<g id="icon_x2F_tick_3_" transform="translate(15.187501, 54.675002)">
		<path id="tick_3_" class="st0" d="M-12.6,2.6c-0.2,0.2-0.1,0.5,0.1,0.7c0,0,0,0,0,0l1.6,1.2l0,0l2.6-3c0.2-0.2,0.2-0.5,0-0.7
			c0,0,0,0,0,0c-0.2-0.2-0.5-0.2-0.7,0l-2,2.3l0,0l-0.9-0.7C-12.1,2.3-12.5,2.4-12.6,2.6z"/>
	</g>
	<g id="icon_x2F_tick_4_" transform="translate(15.187501, 70.875003)">
		<path id="tick_4_" class="st0" d="M-12.6,2.6c-0.2,0.2-0.1,0.5,0.1,0.7c0,0,0,0,0,0l1.6,1.2l0,0l2.6-3c0.2-0.2,0.2-0.5,0-0.7
			c0,0,0,0,0,0c-0.2-0.2-0.5-0.2-0.7,0l-2,2.3l0,0l-0.9-0.7C-12.1,2.3-12.5,2.4-12.6,2.6z"/>
	</g>
	<g id="icon_x2F_tick_5_" transform="translate(15.187501, 38.475002)">
		<path id="tick_5_" class="st0" d="M-12.6,2.6c-0.2,0.2-0.1,0.5,0.1,0.7c0,0,0,0,0,0l1.6,1.2l0,0l2.6-3c0.2-0.2,0.2-0.5,0-0.7
			c0,0,0,0,0,0c-0.2-0.2-0.5-0.2-0.7,0l-2,2.3l0,0l-0.9-0.7C-12.1,2.3-12.5,2.4-12.6,2.6z"/>
	</g>
	<g id="icon_x2F_tick_6_" transform="translate(15.187501, 62.775002)">
		<path id="tick_6_" class="st0" d="M-12.6,2.6c-0.2,0.2-0.1,0.5,0.1,0.7c0,0,0,0,0,0l1.6,1.2l0,0l2.6-3c0.2-0.2,0.2-0.5,0-0.7
			c0,0,0,0,0,0c-0.2-0.2-0.5-0.2-0.7,0l-2,2.3l0,0l-0.9-0.7C-12.1,2.3-12.5,2.4-12.6,2.6z"/>
	</g>
	<g id="icon_x2F_tick_7_" transform="translate(15.187501, 78.975003)">
		<path id="tick_7_" class="st0" d="M-12.6,2.6c-0.2,0.2-0.1,0.5,0.1,0.7c0,0,0,0,0,0l1.6,1.2l0,0l2.6-3c0.2-0.2,0.2-0.5,0-0.7
			c0,0,0,0,0,0c-0.2-0.2-0.5-0.2-0.7,0l-2,2.3l0,0l-0.9-0.7C-12.1,2.3-12.5,2.4-12.6,2.6z"/>
	</g>
</g>
</svg>
