<?xml version="1.0" encoding="utf-8"?>
<!-- Generator: Adobe Illustrator 24.2.0, SVG Export Plug-In . SVG Version: 6.00 Build 0)  -->
<svg version="1.1" id="icon_x5F_user" xmlns="http://www.w3.org/2000/svg" xmlns:xlink="http://www.w3.org/1999/xlink" x="0px"
	 y="0px" viewBox="0 0 21 23" style="enable-background:new 0 0 21 23;" xml:space="preserve">
<style type="text/css">
	.st0{fill-rule:evenodd;clip-rule:evenodd;}
</style>
<path id="user" class="st0" d="M8.8,0.3c1.8-0.6,3.8-0.2,5.4,1c1.6,1.2,2.5,3.1,2.5,4.9l0,0l0,0c0,0.2,0,0.5,0,0.7
	c0,0.1,0,0.2,0,0.2c-0.2,1.9-1.4,3.5-3.2,4.4c-0.1,0-0.1,0.1-0.2,0.1c0.7,0,1.5,0,2.2,0.1l0,0c2.9,0.5,5.1,3.2,5.2,6.2
	c0,1,0,2,0,3.1c0,0.1,0,0.2-0.1,0.3l0,0l0,0.1c-0.2,0.8-0.9,1.3-1.7,1.4c0,0-0.1,0-0.1,0l0,0v0l-0.2,0H4.3c-0.2,0-0.3,0-0.5,0
	c-0.2,0-0.4,0-0.6,0c-1.1,0-2.3-0.2-2.7-1.4l0,0l0-0.1c0-0.1,0-0.2,0-0.3c-0.1-2.8-0.2-6,2.2-7.9c1.4-1.3,3.2-1.6,5-1.6
	c-2.2-1.1-3.5-3.4-3.3-6C4.6,3.1,6.3,0.9,8.8,0.3z M14.8,13.3c-2.9-0.1-6-0.1-8.5,0c0,0,0,0-0.1,0c-0.4,0.1-0.8,0.2-1.2,0.3
	c0,0-0.1,0-0.1,0c-0.2,0.1-0.7,0.4-1,0.6c-0.7,0.5-1.2,1.2-1.6,2c-0.1,0.2-0.2,0.6-0.3,1c0,0.1,0,0.2,0,0.2c0,0,0,0.1,0,0.1l0,0l0,0
	l0,0.7c0,0.5,0,1.1,0,1.6l0,0l0,0.5l0,0.7l0,0c0,0.1,0,0.1,0,0.1l0,0L2,21.3c0,0,0,0,0.1,0.1l0,0l0.1,0l0.1,0c0,0,0,0,0.1,0l0,0
	c3.3,0,6.5,0,9.8,0h6.6c0,0,0,0,0.1,0l0,0l0.1,0c0,0,0.1,0,0.1,0l0,0l0.2-0.2c0,0,0-0.1,0-0.1l0,0l0,0c0-0.3,0-0.6,0-1
	c0-0.8,0-1.7,0-2.5l0,0l0-0.1l0.1,0l-0.1,0L19,17.3c-0.1-0.3-0.1-0.6-0.3-0.9c0,0,0-0.1,0-0.1l0-0.1c-0.1-0.2-0.4-0.7-0.5-0.9
	c-0.5-0.7-1.2-1.2-2-1.6c-0.2-0.1-0.6-0.2-1-0.3c-0.1,0-0.2,0-0.2,0C14.9,13.3,14.9,13.3,14.8,13.3z M11.1,1.5c-0.4,0-0.8,0-1.2,0
	l0,0l-0.3,0C9.3,1.6,9,1.7,8.7,1.8l0,0l0,0l0,0l0,0C8.3,2,8,2.2,7.8,2.4c0,0,0,0-0.1,0c0,0,0,0,0,0l0,0L7.6,2.5
	C7.5,2.5,7.5,2.6,7.4,2.7C7.2,2.9,7,3.1,6.8,3.3c0,0,0,0-0.1,0.1c0,0,0,0,0,0l0,0l0,0.1C6.5,3.7,6.4,4,6.2,4.3l0,0l0,0.1
	C6.1,4.5,5.9,5.1,5.9,5.5C5.7,6.3,5.8,7.3,6.2,8c0.2,0.4,0.3,0.7,0.5,1c0,0,0,0,0,0.1c0,0,0,0,0,0.1l0,0c0.1,0.1,0.1,0.1,0.1,0.1
	c0.2,0.3,0.5,0.5,0.7,0.7c0,0,0,0,0.1,0.1c0,0,0,0,0,0l0,0l0.1,0c0,0,0.1,0.1,0.1,0.1c0.2,0.1,0.4,0.3,0.7,0.4l0,0v0l0.1,0.1
	c0.3,0.1,0.6,0.2,0.9,0.3c0.4,0.1,1,0.1,1.5,0l0,0l0.1,0h0c0.3-0.1,0.6-0.1,1-0.2c0.1,0,0.1,0,0.2-0.1l0,0l0,0
	c0.4-0.2,0.9-0.5,1-0.6l0,0l0,0c0.1-0.1,0.1-0.1,0.2-0.2c0.1-0.1,0.2-0.2,0.3-0.3c0.1-0.1,0.2-0.2,0.3-0.3c0,0,0,0,0.1-0.1l0,0
	c0.2-0.2,0.4-0.5,0.5-0.8c0-0.1,0.1-0.1,0.1-0.2l0,0l0-0.1l0-0.1c0-0.1,0.3-0.8,0.3-1.1l0,0l0-0.1l0-0.6l0-0.6l0-0.2
	c-0.1-0.3-0.2-0.7-0.3-1c-0.2-0.4-0.4-0.8-0.6-1.1l0,0c0,0-0.1-0.1-0.1-0.1c-0.2-0.3-0.4-0.5-0.7-0.7c0,0,0,0-0.1-0.1l0,0l0,0l0,0
	c0,0,0,0,0,0l0,0l-0.1,0C13,2.2,12.7,2,12.4,1.9l0,0l-0.1,0C12,1.7,11.6,1.6,11.1,1.5L11.1,1.5L11.1,1.5z"/>
</svg>
