<?xml version="1.0" encoding="utf-8"?>
<!-- Generator: Adobe Illustrator 24.2.0, SVG Export Plug-In . SVG Version: 6.00 Build 0)  -->
<svg version="1.1" id="icon_x5F_search" xmlns="http://www.w3.org/2000/svg" xmlns:xlink="http://www.w3.org/1999/xlink" x="0px"
	 y="0px" viewBox="0 0 22 22" style="enable-background:new 0 0 22 22;" xml:space="preserve">
<style type="text/css">
	.st0{fill-rule:evenodd;clip-rule:evenodd;}
</style>
<path id="magnifier" class="st0" d="M12.4,0.7c3.3,1.4,5.5,4.6,5.5,8.3c0,2.1-0.7,4-2,5.6l5.4,5.4c0.4,0.4,0.4,1,0,1.4
	c-0.4,0.4-1,0.4-1.4,0l0,0l-5.4-5.4c-1.5,1.2-3.4,1.9-5.5,2c-3.6,0-6.9-2.2-8.3-5.5S0.1,5.2,2.6,2.6S9-0.7,12.4,0.7z M9,1.7
	c-2.9,0-5.6,1.7-6.7,4.4S1.8,12,3.8,14s5.2,2.7,7.9,1.6s4.5-3.7,4.5-6.7C16.2,5,13,1.7,9,1.7z"/>
</svg>
